<svg width="280" height="289" viewBox="0 0 280 289" fill="none" xmlns="http://www.w3.org/2000/svg">
<path d="M196.7 285.754L192.997 282.977C192.997 282.977 174.486 270.945 157.363 253.359C126.357 222.353 125.145 219.53 115.713 230.22C108.771 238.088 83.7811 253.359 83.7811 253.359L50.9239 271.871C39.8171 275.573 30.0987 268.631 30.0987 257.525C30.0987 251.971 37.5032 232.072 46.296 213.56C55.0889 195.049 62.4934 177.001 62.4934 172.836C62.4934 169.133 52.7752 158.027 40.7429 148.308C-0.444519 115.451 -4.60999 109.435 3.25727 94.6259C7.42229 86.7586 12.9761 86.2959 54.6263 87.6842L101.83 89.0725L114.788 48.8106C130.059 1.607 141.629 -9.96245 155.975 8.08598C160.603 13.6393 164.305 21.5065 164.305 25.6716C164.305 44.1828 175.412 92.3121 180.502 97.8654C184.667 102.03 200.864 104.344 227.243 104.807C269.356 105.733 280 109.898 280 123.781C280 132.574 266.117 139.978 266.117 139.978L249.919 151.548C249.919 151.548 237.424 159.415 222.152 166.819C208.269 173.761 196.7 180.703 196.7 182.554C196.7 184.868 201.79 202.916 208.269 223.279C221.227 264.929 222.153 276.961 214.285 284.828C207.344 291.77 196.7 285.754 196.7 285.754ZM205.955 268.168C205.955 266.317 200.865 249.194 194.386 230.22C176.337 174.687 176.337 174.687 230.483 145.069C247.606 135.35 261.489 125.632 261.489 123.318C261.489 121.004 242.978 119.153 219.839 119.153C168.007 119.153 161.991 114.526 157.826 72.4125C149.959 0.21883 143.48 -1.63251 125.431 64.0823C121.266 78.4284 114.325 95.0886 109.697 100.642C101.367 110.823 99.9784 111.286 65.2699 105.732C4.18294 96.9396 2.79472 98.7908 48.6099 135.813C68.0467 151.548 81.0046 165.431 81.0046 170.522C81.0046 175.612 72.6746 196.437 62.0307 216.8C51.3867 237.162 44.445 255.211 45.8334 256.599C47.2217 257.987 82.3929 233.923 101.83 220.965C121.729 207.544 123.118 211.709 127.283 211.709C131.448 211.709 148.571 225.13 165.694 241.79C194.386 269.557 205.955 277.424 205.955 268.168Z" fill="#86968A"/>
<path d="M187.444 251.046C187.444 249.657 188.37 248.732 189.758 248.732C191.146 248.732 192.072 249.657 192.072 251.046C192.072 252.434 191.146 253.359 189.758 253.359C188.37 253.359 187.444 252.434 187.444 251.046Z" fill="#86968A"/>
<path d="M59.2541 236.237C61.1053 234.848 63.8815 234.848 65.7326 236.237C67.1209 238.088 65.7328 239.476 62.4934 239.476C59.2539 239.476 57.8658 238.088 59.2541 236.237Z" fill="#86968A"/>
<path d="M173.561 230.22C173.561 227.907 175.874 225.593 178.651 225.593C180.965 225.593 181.891 227.907 180.502 230.22C179.114 232.997 176.8 234.848 175.412 234.848C174.486 234.848 173.561 232.997 173.561 230.22Z" fill="#86968A"/>
<path d="M74.5257 221.89C73.1373 219.114 74.0629 215.411 76.8396 214.023C83.7813 209.395 88.4094 215.411 82.3933 221.427C79.1538 224.667 76.3768 224.667 74.5257 221.89Z" fill="#86968A"/>
<path d="M159.677 207.081C159.677 204.767 161.991 202.454 164.305 202.454C167.082 202.454 168.933 204.767 168.933 207.081C168.933 209.858 167.082 211.709 164.305 211.709C161.991 211.709 159.677 209.858 159.677 207.081Z" fill="#86968A"/>
<path d="M86.1686 203.495C88.0197 202.107 90.7959 202.107 92.647 203.495C94.0354 205.346 92.6473 206.734 89.4078 206.734C86.1683 206.734 84.7802 205.346 86.1686 203.495Z" fill="#86968A"/>
<path d="M105.069 178.389C107.383 171.447 118.027 167.745 118.027 173.761C118.027 176.075 114.787 179.778 110.622 181.166C105.995 183.017 104.143 181.629 105.069 178.389Z" fill="#86968A"/>
<path d="M122.655 156.176C122.655 149.697 129.597 147.383 136.076 151.085C140.241 153.862 139.315 155.713 132.373 157.564C126.82 158.952 122.655 158.027 122.655 156.176Z" fill="#86968A"/>
<path d="M146.901 146.92C148.29 144.606 153.38 142.292 157.545 142.292C164.487 142.292 164.487 143.218 158.471 146.92C149.215 152.936 143.199 152.936 146.901 146.92Z" fill="#86968A"/>
<path d="M71.749 128.409C71.749 126.095 73.6003 123.781 75.9142 123.781C78.6908 123.781 81.9302 126.095 83.3185 128.409C84.7069 131.185 82.8556 133.037 79.1534 133.037C74.9884 133.037 71.749 131.185 71.749 128.409Z" fill="#86968A"/>
<path d="M31.4874 111.286C33.3385 109.898 36.1148 109.898 37.9659 111.286C39.3542 113.137 37.9661 114.525 34.7266 114.525C31.4872 114.525 30.0991 113.137 31.4874 111.286Z" fill="#86968A"/>
<path d="M137.927 96.9398C137.927 91.3864 140.24 86.7585 142.091 86.7585C147.182 86.7585 146.719 92.3119 141.166 100.642C137.927 106.195 137.001 105.27 137.927 96.9398Z" fill="#86968A"/>
<path d="M137.927 74.2635C139.778 72.8752 142.554 72.8752 144.405 74.2635C145.794 76.1147 144.406 77.5031 141.166 77.5031C137.927 77.5031 136.539 76.1147 137.927 74.2635Z" fill="#86968A"/>
<path d="M141.166 65.9335C141.166 64.5451 142.092 63.6196 143.48 63.6196C144.868 63.6196 145.794 64.5451 145.794 65.9335C145.794 67.3218 144.868 68.2474 143.48 68.2474C142.092 68.2474 141.166 67.3218 141.166 65.9335Z" fill="#86968A"/>
<path d="M141.166 45.1083C141.166 41.8689 142.554 40.4805 144.405 41.8688C145.794 43.7199 145.794 46.4967 144.405 48.3478C142.554 49.7362 141.166 48.3478 141.166 45.1083Z" fill="#86968A"/>
<path d="M94.1113 134.284C94.2748 134.284 94.686 134.448 95.4266 134.818C95.8402 135.025 96.3307 135.27 96.7468 135.478C97.1629 135.686 97.4899 135.85 98.5698 136.514" stroke="#86968A" stroke-width="2" stroke-linecap="round"/>
<path d="M112.193 144.192C112.357 144.192 112.768 144.274 113.467 144.48C114.249 144.767 114.997 145.181 115.697 145.593C116.07 145.76 116.478 145.842 116.899 146.174" stroke="#86968A" stroke-width="2" stroke-linecap="round"/>
<path d="M101.294 189.272C101.294 189.191 101.294 189.109 101.417 188.903C101.539 188.698 101.785 188.371 102.037 188.034" stroke="#86968A" stroke-width="2" stroke-linecap="round"/>
<path d="M154.053 193.731C153.971 193.731 153.889 193.731 153.725 193.608C153.56 193.486 153.315 193.24 153.107 192.951C152.899 192.661 152.735 192.334 152.567 191.749" stroke="#86968A" stroke-width="2" stroke-linecap="round"/>
<path d="M143.48 181.628C143.153 181.465 142.58 180.358 142.003 179.823C141.589 179.206 141.176 178.624 140.763 178.089" stroke="#86968A" stroke-width="2" stroke-linecap="round"/>
<path d="M129.284 168.218L129.779 167.971" stroke="#86968A" stroke-width="2" stroke-linecap="round"/>
<path d="M173.561 143.796C173.71 143.796 173.858 143.796 174.282 143.721C174.706 143.647 175.401 143.498 176.28 143.248C177.159 142.997 178.201 142.65 179.425 142.292" stroke="#86968A" stroke-width="2" stroke-linecap="round"/>
<path d="M196.7 138.867C198.542 138.718 201.755 138.218 203.135 137.991C203.761 137.965 204.365 137.915 204.916 137.815C205.168 137.765 205.367 137.715 205.571 137.664" stroke="#86968A" stroke-width="2" stroke-linecap="round"/>
<path d="M219.839 133.037L233.722 128.409" stroke="#86968A" stroke-width="2" stroke-linecap="round"/>
<path d="M138.67 113.955C138.67 114.054 138.472 114.998 138.121 116.575C137.87 117.705 137.768 118.413 137.644 119.012C137.52 119.363 137.272 119.81 136.866 120.571" stroke="#86968A" stroke-width="2" stroke-linecap="round"/>
<path d="M134.911 132.45C134.911 132.499 134.911 132.549 134.837 132.748C134.762 132.947 134.613 133.295 134.46 134.104" stroke="#86968A" stroke-width="2" stroke-linecap="round"/>
</svg>
