<svg width="815" height="413" viewBox="0 0 815 413" fill="none" xmlns="http://www.w3.org/2000/svg">
<path d="M526.326 276.9C523.326 276.4 517.126 274.2 512.626 272C494.826 263.2 484.226 244.4 484.226 221.4C484.226 189.7 506.826 165.5 536.326 165.7C558.926 165.8 574.726 177.6 579.726 198.2C580.426 201.4 582.926 200.9 544.826 205C529.426 206.6 515.626 208.1 514.126 208.3C512.526 208.5 511.326 208.4 511.326 208C511.326 207.7 522.426 205.9 536.126 204.1C550.526 202.2 561.426 200.3 562.126 199.5C563.226 198.5 563.326 197.2 562.426 192.8C559.026 176.5 547.326 167.2 531.726 168.3C510.826 169.8 498.326 188.4 499.526 215.9C500.726 242.1 514.226 261 535.226 266C544.026 268.1 556.126 266.8 563.726 263.1C569.626 260.2 577.426 253.2 580.026 248.5C580.726 247.4 581.426 246.8 581.726 247.1C582.726 248.1 575.026 259.8 570.326 264.6C567.926 267.1 562.726 270.7 558.826 272.6C548.226 277.8 539.226 279 526.326 276.9Z" fill="#0D2640"/>
<path d="M430.826 274.4C436.226 272.5 438.926 269.1 440.326 262.6C441.126 258.8 441.326 237.1 441.126 189.8C440.826 129.6 440.626 122.1 439.126 118.8C437.326 114.8 434.826 113 430.926 113C429.526 113 428.326 112.6 428.326 112C428.326 111.5 428.926 111 429.626 111C430.226 111 436.126 108.5 442.626 105.5C449.226 102.5 454.726 100 454.926 100C455.126 100 455.326 135.5 455.326 178.9C455.326 227.9 455.726 259.7 456.326 263.1C457.526 269.4 460.226 272.6 465.526 274C467.626 274.6 469.326 275.3 469.326 275.5C469.326 275.8 459.726 276 448.126 275.9C428.426 275.9 427.126 275.8 430.826 274.4Z" fill="#0D2640"/>
<path d="M383.026 277C377.426 275.5 373.626 272.2 370.526 266L367.826 260.5L367.526 215.8L367.226 171H359.726C352.026 171 350.526 169.7 356.726 168.6C362.826 167.4 370.526 159.3 375.726 148.6C378.226 143.5 380.326 138.8 380.326 138.1C380.326 137.5 380.826 137 381.326 137C381.926 137 382.326 142.8 382.326 152.5V168H396.826C409.026 168 411.326 168.2 411.326 169.5C411.326 170.8 409.026 171 396.826 171H382.226L382.526 214.3C382.826 255.7 382.926 257.7 384.926 261.4C387.826 267 391.226 269.2 397.626 269.8C403.726 270.3 407.826 268.7 413.126 263.7C417.326 259.6 417.226 261.5 412.826 267.3C406.626 275.4 393.626 279.6 383.026 277Z" fill="#0D2640"/>
<path d="M313.426 276.5C308.026 274.8 303.726 270.8 300.926 265C298.926 260.7 298.826 258.9 298.526 215.8L298.226 171.1L290.026 170.8L281.826 170.5L286.326 169.1C291.426 167.6 296.826 163.9 300.526 159.5C302.826 156.7 308.526 146.4 311.526 139.5C312.726 136.8 312.826 138.3 313.126 152.3L313.426 168H328.326C340.826 168 343.326 168.2 343.326 169.5C343.326 170.7 340.826 171 328.626 171.2L313.826 171.5V214.5C313.826 257.3 313.826 257.5 316.126 261.7C318.926 267 322.026 269.1 327.826 269.8C333.426 270.4 340.026 268 344.426 263.9C348.526 260 349.326 261 345.826 265.5C338.126 275.7 325.026 280.1 313.426 276.5Z" fill="#0D2640"/>
<path d="M213.726 276.6C198.526 273.6 184.626 262.9 178.126 249C173.426 239.1 171.926 232.4 172.026 221.5C172.226 185.6 199.426 161 232.826 166.1C249.426 168.7 264.626 182.5 267.026 197.3C267.526 200.7 267.526 200.7 263.226 201.4C256.026 202.4 202.526 208 199.626 208C193.426 208 199.226 206.9 221.326 204.1C253.826 199.8 250.726 200.8 250.026 194.5C248.926 184 240.726 173.2 231.026 169.5C224.826 167.1 214.626 167.8 208.326 171C201.426 174.5 198.726 176.9 195.026 182.4C189.626 190.5 188.126 196.1 187.626 209.6C187.126 219.7 187.426 223 189.226 230C195.426 254.6 213.826 268.6 237.126 266.6C248.926 265.6 260.226 259.2 267.026 249.5C270.926 244 270.326 247.5 266.226 253.9C258.326 266.4 248.226 273.6 234.826 276.5C226.626 278.2 222.026 278.2 213.726 276.6Z" fill="#0D2640"/>
<path d="M68.3261 278.5C56.8261 276.5 48.9261 274.2 39.1261 270C34.2261 267.9 29.9261 266 29.7261 265.7C29.4261 265.5 29.4261 257 29.5261 246.9L29.8261 228.5L32.2261 235.5C39.7261 257.7 52.8261 271.1 71.4261 275.5C79.7261 277.4 97.2261 277.4 104.626 275.5C122.326 270.9 132.226 259.4 133.126 242.5C133.526 235.1 133.226 233.6 130.826 228.1C125.326 216 115.126 209.3 83.8261 197.2C63.6261 189.4 55.3261 185.5 47.3261 179.9C33.7261 170.4 26.7261 154.3 29.2261 138.4C35.0261 101 83.7261 86.7 131.126 108.5L138.326 111.9V128.6C138.326 138.3 137.926 145 137.426 144.5C136.926 143.9 135.826 141 134.826 138C129.526 121.3 117.026 108.3 101.226 103C95.6261 101.1 93.2261 100.9 82.8261 101.2C72.6261 101.6 69.8261 102.1 64.1261 104.4C55.8261 107.8 48.3261 114.6 45.1261 121.5C41.8261 128.7 41.8261 141.5 45.1261 148.3C50.7261 159.6 60.9261 166.4 88.8261 177.5C115.826 188.2 126.826 193.9 134.726 201.1C143.926 209.5 147.526 217.1 148.126 229C149.326 253.9 133.226 272.8 106.126 278.4C96.9261 280.3 79.1261 280.4 68.3261 278.5Z" fill="#0D2640"/>
<path d="M386.326 412.3C379.526 412.1 360.426 410.4 352.826 409.5C338.626 407.7 325.226 405.6 316.826 404C311.326 402.9 305.526 401.8 303.826 401.5C302.226 401.3 293.226 399.4 283.826 397.5C217.326 383.5 180.026 378.3 138.826 377.3C91.1261 376.2 48.7261 381.2 12.3261 392.4C6.02612 394.3 0.426134 395.5 0.0261344 395.1C-1.07387 394 32.8261 384.3 49.6261 380.9C95.1261 371.7 147.426 370.5 200.326 377.5C219.326 380 252.126 385.4 258.326 387C260.226 387.5 262.926 388.1 264.326 388.4C265.726 388.6 273.826 390.2 282.326 391.8C290.926 393.5 299.726 395.3 301.826 395.8C305.726 396.8 320.726 399.4 340.826 402.4C360.326 405.4 376.126 406.5 401.826 406.4C451.126 406.4 480.526 400.8 545.326 379C585.026 365.7 600.926 361.2 622.826 357.3C636.726 354.9 640.026 354.7 666.826 354.6C690.226 354.5 697.926 354.9 706.826 356.3C730.926 360.2 755.326 365.6 757.026 367.4C757.426 367.9 756.726 368 755.326 367.7C753.926 367.4 747.626 366.1 741.326 364.7C718.826 359.8 692.126 357.5 667.326 358.3C628.126 359.6 605.726 364.6 545.826 385.4C505.526 399.5 480.226 405.9 450.826 409.5C437.426 411.1 406.326 413.1 398.326 412.8C395.826 412.7 390.426 412.5 386.326 412.3Z" fill="#86968A"/>
<path d="M717.326 348L716.526 347.4C716.526 347.4 712.526 344.8 708.826 341C702.126 334.3 701.864 333.69 699.826 336C698.326 337.7 692.926 341 692.926 341L685.826 345C683.426 345.8 681.326 344.3 681.326 341.9C681.326 340.7 682.926 336.4 684.826 332.4C686.726 328.4 688.326 324.5 688.326 323.6C688.326 322.8 686.226 320.4 683.626 318.3C674.726 311.2 673.826 309.9 675.526 306.7C676.426 305 677.626 304.9 686.626 305.2L696.826 305.5L699.626 296.8C702.926 286.6 705.426 284.1 708.526 288C709.526 289.2 710.326 290.9 710.326 291.8C710.326 295.8 712.726 306.2 713.826 307.4C714.726 308.3 718.226 308.8 723.926 308.9C733.026 309.1 735.326 310 735.326 313C735.326 314.9 732.326 316.5 732.326 316.5L728.826 319C728.826 319 726.126 320.7 722.826 322.3C719.826 323.8 717.326 325.3 717.326 325.7C717.326 326.2 718.426 330.1 719.826 334.5C722.626 343.5 722.826 346.1 721.126 347.8C719.626 349.3 717.326 348 717.326 348ZM719.326 344.2C719.326 343.8 718.226 340.1 716.826 336C712.926 324 712.926 324 724.626 317.6C728.326 315.5 731.326 313.4 731.326 312.9C731.326 312.4 727.326 312 722.326 312C711.126 312 709.826 311 708.926 301.9C707.226 286.3 705.826 285.9 701.926 300.1C701.026 303.2 699.526 306.8 698.526 308C696.726 310.2 696.426 310.3 688.926 309.1C675.726 307.2 675.426 307.6 685.326 315.6C689.526 319 692.326 322 692.326 323.1C692.326 324.2 690.526 328.7 688.226 333.1C685.926 337.5 684.426 341.4 684.726 341.7C685.026 342 692.626 336.8 696.826 334C701.126 331.1 701.426 332 702.326 332C703.226 332 706.926 334.9 710.626 338.5C716.826 344.5 719.326 346.2 719.326 344.2Z" fill="#86968A"/>
<path d="M715.326 340.5C715.326 340.2 715.526 340 715.826 340C716.126 340 716.326 340.2 716.326 340.5C716.326 340.8 716.126 341 715.826 341C715.526 341 715.326 340.8 715.326 340.5Z" fill="#86968A"/>
<path d="M687.626 337.3C688.026 337 688.626 337 689.026 337.3C689.326 337.7 689.026 338 688.326 338C687.626 338 687.326 337.7 687.626 337.3Z" fill="#86968A"/>
<path d="M712.326 336C712.326 335.5 712.826 335 713.426 335C713.926 335 714.126 335.5 713.826 336C713.526 336.6 713.026 337 712.726 337C712.526 337 712.326 336.6 712.326 336Z" fill="#86968A"/>
<path d="M690.926 334.2C690.626 333.6 690.826 332.8 691.426 332.5C692.926 331.5 693.926 332.8 692.626 334.1C691.926 334.8 691.326 334.8 690.926 334.2Z" fill="#86968A"/>
<path d="M709.326 331C709.326 330.5 709.826 330 710.326 330C710.926 330 711.326 330.5 711.326 331C711.326 331.6 710.926 332 710.326 332C709.826 332 709.326 331.6 709.326 331Z" fill="#86968A"/>
<path d="M693.442 330.225C693.842 329.925 694.442 329.925 694.842 330.225C695.142 330.625 694.842 330.925 694.142 330.925C693.442 330.925 693.142 330.625 693.442 330.225Z" fill="#86968A"/>
<path d="M697.526 324.8C698.026 323.3 700.326 322.5 700.326 323.8C700.326 324.3 699.626 325.1 698.726 325.4C697.726 325.8 697.326 325.5 697.526 324.8Z" fill="#86968A"/>
<path d="M701.326 320C701.326 318.6 702.826 318.1 704.226 318.9C705.126 319.5 704.926 319.9 703.426 320.3C702.226 320.6 701.326 320.4 701.326 320Z" fill="#86968A"/>
<path d="M706.565 318C706.865 317.5 707.965 317 708.865 317C710.365 317 710.365 317.2 709.065 318C707.065 319.3 705.765 319.3 706.565 318Z" fill="#86968A"/>
<path d="M690.326 314C690.326 313.5 690.726 313 691.226 313C691.826 313 692.526 313.5 692.826 314C693.126 314.6 692.726 315 691.926 315C691.026 315 690.326 314.6 690.326 314Z" fill="#86968A"/>
<path d="M681.626 310.3C682.026 310 682.626 310 683.026 310.3C683.326 310.7 683.026 311 682.326 311C681.626 311 681.326 310.7 681.626 310.3Z" fill="#86968A"/>
<path d="M704.626 307.2C704.626 306 705.126 305 705.526 305C706.626 305 706.526 306.2 705.326 308C704.626 309.2 704.426 309 704.626 307.2Z" fill="#86968A"/>
<path d="M704.626 302.3C705.026 302 705.626 302 706.026 302.3C706.326 302.7 706.026 303 705.326 303C704.626 303 704.326 302.7 704.626 302.3Z" fill="#86968A"/>
<path d="M705.326 300.5C705.326 300.2 705.526 300 705.826 300C706.126 300 706.326 300.2 706.326 300.5C706.326 300.8 706.126 301 705.826 301C705.526 301 705.326 300.8 705.326 300.5Z" fill="#86968A"/>
<path d="M705.326 296C705.326 295.3 705.626 295 706.026 295.3C706.326 295.7 706.326 296.3 706.026 296.7C705.626 297 705.326 296.7 705.326 296Z" fill="#86968A"/>
<path d="M286.726 344.2C286.226 343.8 282.326 339.1 278.026 333.8C270.226 324.2 267.026 320.8 267.426 322.6C267.526 323.1 267.526 328.1 267.426 333.8C267.326 341.9 267.026 344 265.926 344C264.726 344 264.426 341.8 264.126 333.3C263.726 319.1 264.126 315 265.826 315C266.626 315 268.626 316.7 270.226 318.8C271.926 320.8 276.026 325.8 279.326 329.8L285.326 337.1L285.426 329.8C285.526 316.5 285.726 315.6 287.626 315.2C289.226 314.9 289.326 316.1 289.326 329.4C289.326 343.3 288.926 345.7 286.726 344.2Z" fill="#86968A"/>
<path d="M644.926 343.3C641.926 332.9 640.626 288.6 642.926 268.2C647.926 221.7 660.326 180.5 683.326 133.3C692.826 113.9 696.726 107 698.326 107C700.026 107 699.426 108.5 694.626 117.1C689.626 125.9 680.826 145 674.326 161C655.126 208.4 646.226 248.7 645.026 294C644.626 305.6 644.926 311.2 646.926 335.8C647.426 342.2 647.326 345 646.526 345C645.926 345 645.226 344.2 644.926 343.3Z" fill="#86968A"/>
<path d="M670.326 342.6C669.026 339.1 664.826 316.3 663.326 304.5C661.826 293.3 661.926 257.6 663.326 243.2C665.726 219.9 670.326 195.8 676.026 177.1C681.226 159.7 695.326 124.4 695.326 128.5C695.326 128.9 692.426 136 691.226 138.7C688.026 146.2 677.826 181 674.426 196.2C668.126 224.4 665.826 246.8 665.926 277.5C666.026 298.5 666.826 306.7 671.026 329.3C672.826 339.3 673.326 343.4 672.526 344.2C671.726 345 671.126 344.6 670.326 342.6Z" fill="#86968A"/>
<path d="M161.226 340.8C161.126 338 161.226 318.2 161.326 315.6C161.326 315.2 165.226 315 169.926 315.1C177.826 315.5 178.626 315.7 180.926 318.3C183.826 321.7 184.026 326.5 181.526 329.8C179.626 332.3 174.226 333.9 168.126 334H164.326V339C164.326 342.8 163.926 344 162.826 344C161.826 344 161.326 342.9 161.226 340.8ZM177.926 328.3C178.626 327.3 179.326 325.3 179.326 323.8C179.326 320 176.026 318 169.626 318H164.326V323.3C164.326 326.3 164.626 329 165.026 329.3C165.326 329.7 168.126 330 171.126 330C175.126 330 176.926 329.5 177.926 328.3Z" fill="#86968A"/>
<path d="M206.326 343.3C206.426 342.8 209.226 336.4 212.726 329C217.326 319 219.526 315.5 220.826 315.5C221.826 315.5 223.026 316.2 223.426 317C225.826 321.1 235.326 342 235.326 342.9C235.326 345.4 232.226 343.8 230.626 340.5L228.926 336.9L220.826 337.2C212.926 337.5 212.826 337.5 211.326 340.7C210.526 342.5 209.026 344 208.126 344C207.126 344 206.326 343.7 206.326 343.3ZM226.326 332.1C226.326 331.6 225.126 328.6 223.726 325.5L221.026 319.7L218.826 324.1C217.626 326.5 216.226 329.5 215.926 330.8C215.226 332.9 215.426 333 220.726 333C223.826 333 226.326 332.6 226.326 332.1Z" fill="#86968A"/>
<path d="M317.326 343.5C317.326 343.1 319.226 338.9 326.626 322.8C331.826 311.7 332.526 312 340.126 328.5C343.526 336 346.326 342.5 346.326 343C346.326 345.5 343.026 343.6 341.726 340.5L340.326 337H331.926H323.526L322.326 340.5C321.526 342.9 320.526 344 319.226 344C318.226 344 317.326 343.8 317.326 343.5ZM335.726 327.2C334.326 324.1 332.826 321.1 332.426 320.7C331.826 320.1 326.326 330.7 326.326 332.5C326.326 333 336.526 333.6 337.526 333.2C337.926 333.1 337.026 330.4 335.726 327.2Z" fill="#86968A"/>
<path d="M375.126 334.3C374.726 320.7 375.226 315 376.826 315C378.126 315 379.226 316.3 386.026 325.8L389.126 330.1L394.526 322.6C402.526 311.2 403.326 311.8 403.326 329.5C403.326 341.2 403.026 344 401.926 344C399.826 344 399.326 341.7 399.326 331.2V321.6L394.226 328.8L389.126 336.1L384.026 328.8L378.826 321.5L378.526 332.8C378.326 341.6 377.926 344 376.826 344C375.826 344 375.426 341.8 375.126 334.3Z" fill="#86968A"/>
<path d="M432.726 341.5C433.126 340.1 435.926 333.5 439.126 327C445.926 312.6 447.126 312.1 451.226 321.3C452.726 324.7 455.726 330.9 457.726 335.2C459.726 339.4 461.326 343.1 461.326 343.4C461.326 343.7 460.526 344 459.526 344C458.426 344 457.026 342.6 456.026 340.5L454.326 337H446.326H438.326L436.626 340.5C434.626 344.7 431.726 345.4 432.726 341.5ZM452.326 332.3C452.226 331.8 451.026 328.9 449.426 325.6L446.626 319.8L444.326 324.6C443.026 327.3 441.626 330.3 441.126 331.3C440.326 332.8 440.826 333 446.326 333C449.626 333 452.326 332.7 452.326 332.3Z" fill="#86968A"/>
<path d="M613.226 145.6C612.126 151 611.426 155.9 611.726 156.6C612.626 159 613.726 158.1 616.826 152.9C623.726 141.2 642.526 126.8 662.326 117.9C671.026 114.1 670.826 114.2 670.126 113.4C669.426 112.8 659.226 116.3 650.826 120C642.026 123.9 629.726 132.8 622.826 140.3C616.226 147.3 616.126 147.4 616.826 144C619.626 130.9 622.526 121.1 633.326 114C634.726 113 640.326 108.5 640.326 108.5C640.326 108.5 645.826 104.5 648.326 103.5C650.826 102.5 656.926 101 661.826 99.6C667.926 97.9 673.526 97.1 679.326 97L687.826 96.9L685.426 94.9C683.726 93.6 682.126 93.1 679.926 93.5C678.226 93.7 674.226 94.2 671.126 94.4C641.226 97 619.126 116.5 613.226 145.6Z" fill="#86968A"/>
<path d="M799.326 111.5C805.326 114.5 805.426 114.8 808.026 116.6C810.726 118.4 813.126 119.9 813.626 119.9C817.326 120.2 808.026 104.5 799.226 96C783.826 80.9 762.126 74.9 739.526 79.6C735.326 80.5 730.026 82 727.826 82.9L723.826 84.7L729.326 84.4C732.326 84.3 738.026 83.4 741.826 82.6C745.726 81.7 751.326 81 754.326 81C772.426 81 792.726 91.1 803.826 105.8C805.726 108.2 807.326 110.6 807.326 110.9C807.326 111.3 803.826 109.9 799.426 107.8C795.126 105.7 787.326 102.9 782.226 101.6C771.726 98.9 750.026 97.1 748.926 98.8C748.526 99.5 750.826 100.1 755.026 100.5C765.726 101.5 778.826 103.9 785.526 106C785.526 106 793.326 108.5 799.326 111.5Z" fill="#86968A"/>
<path d="M673.326 112.5C673.326 112.2 673.526 112 673.826 112C674.126 112 674.326 112.2 674.326 112.5C674.326 112.8 674.126 113 673.826 113C673.526 113 673.326 112.8 673.326 112.5Z" fill="#86968A"/>
<path d="M675.326 90C675.326 89.3 675.626 89 676.026 89.3C676.326 89.7 676.326 90.3 676.026 90.7C675.626 91 675.326 90.7 675.326 90Z" fill="#86968A"/>
<path d="M662.826 83.9C663.926 84.4 665.926 85.2 667.326 85.8C668.726 86.3 670.026 86.6 670.226 86.4C670.826 85.9 670.526 85.7 663.826 82.6C641.026 72 627.626 68.7 609.126 69.2C602.626 69.4 597.326 69.3 597.326 69C597.326 67.9 598.926 64 614.126 60C629.326 56 624.826 56.5 633.626 56.5C642.426 56.5 653.426 58.4 658.326 60C658.326 60 662.526 62 666.326 64C670.067 65.969 670.998 66.5811 674.652 68.9852L674.826 69.1C678.726 71.7 684.626 76.3 688.026 79.4C691.326 82.5 694.426 85 694.726 85C698.026 85 689.526 75.5 679.326 67.9C656.826 51.1 628.526 48.2 604.726 60.4C597.426 64.1 586.326 72.3 586.326 74C586.326 75.3 585.626 75.3 596.526 73.4C612.226 70.7 630.126 72.8 651.626 80C656.626 81.7 661.726 83.5 662.826 83.9Z" fill="#86968A"/>
<path d="M708.326 69C708.326 72.2 708.626 75.5 708.926 76.4C710.026 79.2 711.226 78.1 714.126 71.7C715.726 68.2 719.126 62.2 721.726 58.3C726.526 51 745.126 34.4 745.126 34.4C745.126 34.4 759.826 26 779.826 23.9C799.826 21.8 788.826 24.5 788.826 24.5L782.026 27.7C766.526 35.1 749.526 49.7 736.426 67L730.026 75.5L741.426 64C755.026 50.2 764.626 41.9 773.126 36.5C776.526 34.4 780.326 32 780.326 32C780.326 32 782.326 31 786.826 29C791.326 27 798.626 25.5 799.126 24.2C799.526 22.8 797.526 22.3 787.726 21.1C758.926 17.6 729.126 35.2 713.726 65L711.926 68.5L710.626 60.1C708.726 48.1 705.326 39.2 698.826 29.5C687.126 11.9 666.226 0 647.026 0C640.426 0 639.226 1.10001 643.626 3.20001C649.126 5.80001 662.026 16.7 666.826 22.8C673.626 31.3 681.426 44.2 686.426 55.2C688.826 60.5 690.926 64.7 691.126 64.6C691.226 64.4 689.626 59.2 687.426 53C681.126 35.2 671.526 20.9 658.226 9.70001C652.526 4.90001 652.326 4.49999 654.526 3.89999C655.726 3.59999 657.326 4.10001 657.326 4.10001C665.826 7 669.826 9 675.826 12C681.826 15 701.326 35.5 705.826 53.5C707.226 58.9 708.326 65.9 708.326 69Z" fill="#86968A"/>
<path d="M763.326 175C764.026 177.5 764.726 180.1 764.926 180.8C765.626 183.4 767.826 181.3 768.526 177.4C769.726 170.5 769.326 155.6 767.826 149.5C764.626 136.8 758.226 125.9 748.826 117.1C738.826 107.8 707.266 99.1076 719.326 103.2C721.291 103.867 722.373 104.297 724.326 105C726.279 105.703 728.671 106.986 731.326 108.5C734.243 110.163 735.426 111.2 738.526 113.2C755.726 124.5 766.426 144.8 766.326 165.9L766.226 171.5L763.426 165.4C757.626 152.9 747.826 140.5 735.226 129.8C721.926 118.5 720.626 118.3 731.226 129C736.926 134.8 744.226 142.7 747.526 146.7C754.026 154.7 761.526 168 763.326 175Z" fill="#86968A"/>
<path d="M695.158 315.27C695.194 315.27 695.282 315.305 695.442 315.385C695.532 315.43 695.638 315.483 695.728 315.528C695.818 315.573 695.888 315.608 696.122 315.751" stroke="#86968A" stroke-width="2" stroke-linecap="round"/>
<path d="M699.065 317.411C699.101 317.411 699.19 317.428 699.341 317.473C699.51 317.535 699.671 317.624 699.823 317.713C699.903 317.749 699.991 317.767 700.082 317.839" stroke="#86968A" stroke-width="2" stroke-linecap="round"/>
<path d="M696.71 327.152C696.71 327.134 696.71 327.116 696.737 327.072C696.763 327.028 696.816 326.957 696.871 326.884" stroke="#86968A" stroke-width="2" stroke-linecap="round"/>
<path d="M708.111 328.115C708.093 328.115 708.075 328.115 708.04 328.089C708.004 328.062 707.951 328.009 707.906 327.947C707.861 327.884 707.826 327.813 707.79 327.687" stroke="#86968A" stroke-width="2" stroke-linecap="round"/>
<path d="M705.826 325.5C705.755 325.465 705.632 325.225 705.507 325.11C705.418 324.977 705.328 324.851 705.239 324.735" stroke="#86968A" stroke-width="2" stroke-linecap="round"/>
<path d="M702.758 322.602L702.866 322.549" stroke="#86968A" stroke-width="2" stroke-linecap="round"/>
<path d="M712.326 317.325C712.358 317.325 712.39 317.325 712.482 317.309C712.574 317.293 712.724 317.261 712.914 317.206C713.104 317.152 713.329 317.077 713.593 317" stroke="#86968A" stroke-width="2" stroke-linecap="round"/>
<path d="M717.326 316.26C717.724 316.228 718.418 316.12 718.717 316.071C718.852 316.065 718.983 316.054 719.101 316.033C719.156 316.022 719.199 316.011 719.243 316" stroke="#86968A" stroke-width="2" stroke-linecap="round"/>
<path d="M722.326 315L725.326 314" stroke="#86968A" stroke-width="2" stroke-linecap="round"/>
<path d="M704.787 310.877C704.787 310.898 704.744 311.102 704.668 311.443C704.614 311.687 704.592 311.84 704.565 311.97C704.538 312.045 704.485 312.142 704.397 312.306" stroke="#86968A" stroke-width="2" stroke-linecap="round"/>
<path d="M703.974 314.873C703.974 314.884 703.974 314.895 703.958 314.938C703.942 314.981 703.91 315.056 703.877 315.231" stroke="#86968A" stroke-width="2" stroke-linecap="round"/>
</svg>
