<svg version="1.1" xmlns="http://www.w3.org/2000/svg" viewBox="110.592 370.688 813.056 258.048" style="max-height: 500px" width="813.056" height="258.048">
  <g stroke-linecap="butt" fill="none">
    <path d="M 209.50 384.50 C 214.18 382.02 219.35 380.00 221.00 380.00 C 222.65 380.00 230.07 382.93 237.50 386.50 C 244.93 390.07 256.18 395.02 262.50 397.50 C 268.82 399.98 279.40 403.80 286.00 406.00 C 292.60 408.20 303.85 411.35 311.00 413.00 C 321.17 415.35 324.22 416.43 325.00 418.00 C 325.55 419.10 326.23 429.45 326.50 441.00 C 326.77 452.55 326.55 467.85 326.00 475.00 C 325.45 482.15 323.88 493.62 322.50 500.50 C 321.12 507.38 318.43 517.73 316.50 523.50 C 314.57 529.27 311.20 537.83 309.00 542.50 C 306.80 547.17 302.07 555.50 298.50 561.00 C 294.93 566.50 289.07 574.38 285.50 578.50 C 281.93 582.62 275.40 589.15 271.00 593.00 C 266.60 596.85 258.27 603.15 252.50 607.00 C 246.72 610.85 237.95 616.02 233.00 618.50 C 228.05 620.98 222.65 623.00 221.00 623.00 C 219.17 623.00 213.92 620.67 207.50 617.00 C 201.72 613.70 192.50 607.85 187.00 604.00 C 181.50 600.15 173.85 594.08 170.00 590.50 C 166.15 586.92 160.07 580.40 156.50 576.00 C 152.93 571.60 147.97 565.08 145.50 561.50 C 143.03 557.92 138.75 550.27 136.00 544.50 C 133.25 538.73 129.20 528.60 127.00 522.00 C 124.80 515.40 122.10 505.50 121.00 500.00 C 119.90 494.50 118.55 485.95 118.00 481.00 C 117.45 476.05 117.00 460.07 117.00 445.50 C 117.00 423.28 117.24 418.76 118.50 417.50 C 119.33 416.68 127.88 413.98 137.50 411.50 C 147.12 409.02 159.28 405.43 164.50 403.50 C 169.72 401.57 180.07 397.52 187.50 394.50 C 194.93 391.48 204.82 386.98 209.50 384.50" stroke="#2A2A2A"/>
    <path d="M 505.00 416.50 C 506.81 415.60 510.78 415.00 522.00 415.00 L 522.00 427.00 L 518.50 427.00 C 516.33 427.00 514.24 427.76 513.00 429.00 C 511.59 430.41 511.00 432.33 511.00 440.00 L 523.00 441.00 L 524.00 453.00 L 511.00 453.00 L 511.00 499.00 L 497.00 499.00 L 497.00 453.00 L 488.00 453.00 L 488.00 440.00 L 497.00 440.00 L 497.00 435.00 C 497.00 432.25 497.45 428.43 498.00 426.50 C 498.55 424.57 499.68 421.88 500.50 420.50 C 501.32 419.12 503.35 417.32 505.00 416.50" stroke="#2A2A2A"/>
    <path d="M 897.00 416.00 L 912.00 416.00 L 912.00 499.00 L 898.00 499.00 L 898.00 492.00 L 896.00 494.00 C 894.90 495.10 892.20 496.90 890.00 498.00 C 887.14 499.43 884.00 500.00 879.00 500.00 C 873.67 500.00 870.69 499.40 866.50 497.50 C 862.96 495.89 859.93 493.57 858.00 491.00 C 856.35 488.80 854.10 484.30 853.00 481.00 C 851.90 477.70 851.00 472.75 851.00 470.00 C 851.00 467.25 851.90 462.07 853.00 458.50 C 854.57 453.40 856.07 450.93 860.00 447.00 C 863.52 443.48 866.48 441.56 870.00 440.50 C 873.19 439.54 877.17 439.18 881.00 439.50 C 885.26 439.85 888.45 440.87 897.00 446.00 L 897.00 416.00" stroke="#2A2A2A"/>
    <path d="M 380.50 419.50 C 383.66 418.45 387.39 418.15 393.00 418.50 C 397.54 418.78 403.16 419.86 406.00 421.00 C 408.95 422.18 412.44 424.64 414.50 427.00 C 416.43 429.20 418.68 432.57 419.50 434.50 C 420.32 436.43 421.00 439.12 421.00 440.50 C 421.00 442.98 420.93 443.00 414.00 442.50 C 407.28 442.02 406.96 441.88 406.00 439.00 C 405.45 437.35 403.65 434.88 402.00 433.50 C 400.35 432.12 397.20 430.77 395.00 430.50 C 392.80 430.23 389.20 430.45 387.00 431.00 C 384.80 431.55 381.88 433.12 380.50 434.50 C 378.79 436.21 378.00 438.10 378.00 440.50 C 378.00 442.90 378.79 444.79 380.50 446.50 C 382.31 448.31 385.49 449.55 392.00 451.00 C 396.95 452.10 403.48 453.90 406.50 455.00 C 409.99 456.27 413.64 458.64 416.50 461.50 C 418.98 463.98 421.45 467.57 422.00 469.50 C 422.55 471.43 423.00 474.12 423.00 475.50 C 423.00 476.88 422.32 480.25 421.50 483.00 C 420.68 485.75 418.65 489.57 417.00 491.50 C 415.35 493.43 411.98 495.90 409.50 497.00 C 407.02 498.10 402.07 499.45 398.50 500.00 C 394.17 500.67 390.00 500.67 386.00 500.00 C 382.70 499.45 378.20 498.10 376.00 497.00 C 373.80 495.90 370.65 493.65 369.00 492.00 C 367.35 490.35 365.10 487.20 364.00 485.00 C 362.90 482.80 362.00 479.65 362.00 475.00 L 376.00 475.00 L 378.00 479.00 C 379.15 481.30 381.70 484.06 384.00 485.50 C 386.73 487.20 389.43 488.00 392.50 488.00 C 394.98 488.00 398.57 487.32 400.50 486.50 C 402.43 485.68 404.90 483.88 406.00 482.50 C 407.10 481.12 408.00 478.65 408.00 477.00 C 408.00 475.27 406.94 472.73 405.50 471.00 C 403.78 468.93 400.98 467.38 396.50 466.00 C 392.93 464.90 386.85 463.32 383.00 462.50 C 378.91 461.62 374.13 459.75 371.50 458.00 C 368.88 456.25 366.17 453.33 365.00 451.00 C 363.40 447.80 363.10 445.70 363.50 440.50 C 363.90 435.30 364.60 433.20 367.00 430.00 C 368.65 427.80 371.35 424.88 373.00 423.50 C 374.65 422.12 378.02 420.32 380.50 419.50" stroke="#2A2A2A"/>
    <path d="M 618.50 420.00 C 623.13 418.32 625.66 418.08 634.50 418.50 C 642.84 418.90 646.13 419.51 650.50 421.50 C 653.52 422.88 657.80 425.80 660.00 428.00 C 662.20 430.20 665.12 434.25 666.50 437.00 C 667.88 439.75 669.00 442.68 669.00 443.50 C 669.00 444.70 667.50 445.00 654.00 445.00 L 652.00 441.50 C 650.90 439.57 648.20 436.65 646.00 435.00 C 642.62 432.46 640.84 431.92 634.50 431.50 C 629.31 431.15 625.61 431.46 622.50 432.50 C 619.55 433.48 616.62 435.55 614.00 438.50 C 611.69 441.10 609.37 445.11 608.50 448.00 C 607.67 450.75 607.00 455.70 607.00 459.00 C 607.00 462.30 607.67 467.25 608.50 470.00 C 609.33 472.75 611.12 476.35 612.50 478.00 C 613.88 479.65 616.58 482.12 618.50 483.50 C 620.42 484.88 624.25 486.45 627.00 487.00 C 630.33 487.67 633.67 487.67 637.00 487.00 C 639.75 486.45 643.80 484.88 646.00 483.50 C 648.27 482.08 651.08 479.05 652.50 476.50 C 653.88 474.02 655.00 471.55 655.00 471.00 C 655.00 470.39 650.50 470.00 632.00 470.00 L 632.00 456.00 L 670.00 456.00 L 669.50 465.50 C 669.12 472.74 668.40 476.31 666.50 480.50 C 665.12 483.52 662.20 487.80 660.00 490.00 C 657.80 492.20 653.52 495.12 650.50 496.50 C 647.48 497.88 642.08 499.45 638.50 500.00 C 634.17 500.67 629.83 500.67 625.50 500.00 C 621.92 499.45 616.52 497.88 613.50 496.50 C 610.48 495.12 605.98 491.98 603.50 489.50 C 601.02 487.02 598.10 483.20 597.00 481.00 C 595.90 478.80 594.33 474.52 593.50 471.50 C 592.67 468.48 592.00 463.30 592.00 460.00 C 592.00 456.70 592.45 451.75 593.00 449.00 C 593.55 446.25 595.12 441.75 596.50 439.00 C 597.88 436.25 600.58 432.20 602.50 430.00 C 604.42 427.80 607.58 425.10 609.50 424.00 C 611.42 422.90 615.48 421.10 618.50 420.00" stroke="#2A2A2A"/>
    <path d="M 445.00 441.50 C 448.90 439.55 451.53 439.00 457.00 439.00 C 460.85 439.00 466.02 439.68 468.50 440.50 C 471.32 441.44 474.30 443.49 476.50 446.00 C 478.59 448.38 480.40 451.82 481.00 454.50 C 481.55 456.98 482.00 468.00 482.00 499.00 L 475.50 499.00 C 469.23 499.00 469.00 498.91 469.00 496.50 C 469.00 495.12 468.77 494.00 468.50 494.00 C 468.23 494.00 467.10 494.90 466.00 496.00 C 464.90 497.10 462.88 498.45 461.50 499.00 C 460.12 499.55 455.85 500.00 452.00 500.00 C 447.00 500.00 443.86 499.43 441.00 498.00 C 438.80 496.90 435.88 494.43 434.50 492.50 C 433.12 490.57 431.77 487.43 431.50 485.50 C 431.23 483.57 431.23 480.43 431.50 478.50 C 431.82 476.28 433.28 473.72 435.50 471.50 C 437.87 469.13 441.10 467.35 445.50 466.00 C 449.07 464.90 455.60 463.77 468.00 463.00 L 468.00 459.50 C 468.00 456.94 467.19 455.19 465.00 453.00 C 462.81 450.81 461.06 450.00 458.50 450.00 C 456.57 450.00 453.88 450.45 452.50 451.00 C 451.12 451.55 449.32 453.35 448.50 455.00 C 447.11 457.77 446.51 458.04 440.50 458.50 C 434.10 458.99 434.00 458.96 434.00 456.50 C 434.00 455.12 434.45 452.88 435.00 451.50 C 435.55 450.12 436.90 447.88 438.00 446.50 C 439.10 445.12 442.25 442.88 445.00 441.50" stroke="#2A2A2A"/>
    <path d="M 547.50 440.50 C 549.98 439.68 553.80 439.00 556.00 439.00 C 558.20 439.00 562.02 439.68 564.50 440.50 C 566.98 441.32 570.58 443.12 572.50 444.50 C 574.42 445.88 577.12 448.80 578.50 451.00 C 579.88 453.20 581.67 457.25 582.50 460.00 C 583.33 462.75 584.00 466.80 584.00 473.00 L 563.50 473.50 C 552.23 473.77 542.77 474.23 542.50 474.50 C 542.23 474.77 542.45 476.57 543.00 478.50 C 543.55 480.43 545.35 483.35 547.00 485.00 C 549.30 487.30 551.17 488.12 555.00 488.50 C 557.75 488.77 560.90 488.55 562.00 488.00 C 563.10 487.45 564.67 485.65 565.50 484.00 C 566.97 481.07 567.17 481.00 574.50 481.00 C 580.50 481.00 582.00 481.30 582.00 482.50 C 582.00 483.32 580.42 486.02 578.50 488.50 C 576.58 490.98 572.98 494.35 570.50 496.00 C 566.71 498.53 564.74 499.08 558.00 499.50 C 552.39 499.85 548.66 499.55 545.50 498.50 C 543.00 497.67 539.22 495.22 537.00 493.00 C 534.80 490.80 532.10 486.98 531.00 484.50 C 529.85 481.91 528.79 476.81 528.50 472.50 C 528.17 467.50 528.50 463.17 529.50 459.50 C 530.71 455.07 532.17 452.83 537.00 448.00 C 541.00 444.00 544.50 441.50 547.50 440.50" stroke="#2A2A2A"/>
    <path d="M 748.00 458.00 L 748.00 458.00 C 748.00 458.00 748.00 456.88 748.00 455.50 C 748.00 454.12 748.67 451.65 749.50 450.00 C 750.33 448.35 752.12 445.88 753.50 444.50 C 754.88 443.12 758.48 441.32 761.50 440.50 C 765.17 439.50 769.50 439.17 774.50 439.50 C 780.17 439.88 782.98 440.61 786.00 442.50 C 788.24 443.90 791.32 447.20 796.00 455.00 L 797.00 499.00 L 790.00 499.00 C 783.20 499.00 783.00 498.93 783.00 496.50 C 783.00 495.12 782.55 494.00 782.00 494.00 C 781.45 494.00 780.55 494.68 780.00 495.50 C 779.45 496.32 777.65 497.68 776.00 498.50 C 774.35 499.32 771.42 500.23 769.50 500.50 C 767.58 500.77 763.75 500.55 761.00 500.00 C 758.25 499.45 754.42 497.88 752.50 496.50 C 750.58 495.12 748.10 492.65 747.00 491.00 C 745.74 489.11 745.00 486.33 745.00 483.50 C 745.00 480.57 745.87 477.43 747.50 474.50 C 749.36 471.16 751.16 469.49 754.50 468.00 C 756.98 466.90 761.02 465.55 763.50 465.00 C 765.98 464.45 771.15 463.55 775.00 463.00 C 781.53 462.07 782.00 461.83 782.00 459.50 C 782.00 458.12 781.33 455.88 780.50 454.50 C 779.67 453.12 777.88 451.55 776.50 451.00 C 775.12 450.45 772.88 450.00 771.50 450.00 C 770.12 450.00 767.65 450.68 763.00 453.00" stroke="#2A2A2A"/>
    <path d="M 681.00 440.00 L 696.00 440.00 L 696.00 459.00 C 696.00 473.89 696.32 478.65 697.50 481.00 C 698.35 482.70 700.52 484.65 702.50 485.50 C 704.42 486.32 706.67 487.00 707.50 487.00 C 708.33 487.00 710.58 486.32 712.50 485.50 C 715.06 484.40 716.54 482.79 718.00 479.50 C 719.75 475.56 720.00 472.83 720.00 440.00 L 735.00 440.00 L 735.00 499.00 L 721.00 499.00 L 721.00 493.00 L 717.50 496.00 C 715.37 497.83 712.04 499.39 709.00 500.00 C 705.67 500.67 702.67 500.67 700.00 500.00 C 697.80 499.45 694.20 498.10 692.00 497.00 C 689.80 495.90 687.33 494.10 686.50 493.00 C 685.67 491.90 684.10 489.20 683.00 487.00 C 681.19 483.37 681.00 481.00 681.00 440.00" stroke="#2A2A2A"/>
    <path d="M 810.00 440.00 L 824.00 440.00 L 824.00 448.00 L 826.00 445.50 C 827.10 444.12 829.35 442.32 831.00 441.50 C 832.81 440.60 836.78 440.00 848.00 440.00 L 848.00 456.00 L 845.00 455.00 C 843.35 454.45 840.20 454.23 838.00 454.50 C 835.53 454.81 832.66 456.15 830.50 458.00 C 828.58 459.65 826.55 462.57 826.00 464.50 C 825.45 466.43 825.00 474.98 825.00 499.00 L 817.50 499.00 C 813.38 499.00 810.00 498.77 810.00 498.50 C 810.00 498.23 810.00 484.95 810.00 440.00" stroke="#2A2A2A"/>
    <path d="M 763.00 453.00 L 763.00 453.00 C 763.00 453.00 762.55 453.90 762.00 455.00 C 761.45 456.10 760.77 457.23 760.50 457.50 C 760.23 457.77 757.30 458.00 748.00 458.00" stroke="#2A2A2A"/>
    <path d="M 748.00 458.00 L 748.00 458.00 C 748.00 458.00 748.67 457.55 749.50 457.00 C 750.33 456.45 752.58 456.00 754.50 456.00 C 756.42 456.00 759.12 455.32 763.00 453.00" stroke="#2A2A2A"/>
     <path d="M 385.50 530.50 C 388.56 529.48 392.24 529.16 397.00 529.50 C 400.85 529.77 406.02 530.90 408.50 532.00 C 410.98 533.10 414.35 534.90 416.00 536.00 C 417.65 537.10 420.35 540.25 422.00 543.00 C 423.65 545.75 425.00 548.90 425.00 550.00 C 425.00 551.70 424.33 552.00 420.50 552.00 C 416.28 552.00 415.81 551.72 413.00 547.50 C 411.22 544.83 408.57 542.39 406.50 541.50 C 404.57 540.67 400.30 539.77 397.00 539.50 C 392.45 539.12 389.79 539.48 386.00 541.00 C 383.25 542.10 379.65 544.57 378.00 546.50 C 376.35 548.42 374.32 551.58 373.50 553.50 C 372.61 555.57 372.00 560.06 372.00 564.50 C 372.00 569.83 372.58 573.30 374.00 576.50 C 375.10 578.98 376.90 582.12 378.00 583.50 C 379.10 584.88 382.25 587.12 385.00 588.50 C 388.33 590.17 391.67 591.00 395.00 591.00 C 398.33 591.00 401.67 590.17 405.00 588.50 C 407.75 587.12 410.90 584.88 412.00 583.50 C 413.10 582.12 414.23 580.10 414.50 579.00 C 414.92 577.33 415.83 577.00 420.00 577.00 C 423.78 577.00 425.00 577.37 425.00 578.50 C 425.00 579.33 424.10 581.80 423.00 584.00 C 421.90 586.20 419.43 589.58 417.50 591.50 C 415.57 593.42 411.98 595.90 409.50 597.00 C 405.98 598.57 402.83 599.00 395.00 599.00 C 387.17 599.00 384.02 598.57 380.50 597.00 C 378.02 595.90 374.20 593.42 372.00 591.50 C 369.59 589.39 366.81 585.41 365.00 581.50 C 362.92 576.98 361.85 572.86 361.50 568.00 C 361.13 562.80 361.51 559.20 363.00 554.00 C 364.33 549.33 366.17 545.67 368.50 543.00 C 370.43 540.80 374.02 537.42 376.50 535.50 C 378.98 533.58 383.02 531.33 385.50 530.50" stroke="#2A2A2A"/>
    <path d="M 460.00 530.50 C 462.77 529.46 466.15 529.15 471.00 529.50 C 474.85 529.77 480.02 530.90 482.50 532.00 C 484.98 533.10 488.57 535.12 490.50 536.50 C 492.43 537.88 495.12 541.02 496.50 543.50 C 497.88 545.98 499.23 548.90 499.50 550.00 C 499.95 551.80 499.50 552.00 495.00 552.00 C 490.44 552.00 489.87 551.73 488.50 549.00 C 487.68 547.35 485.65 544.88 484.00 543.50 C 482.35 542.12 479.43 540.55 477.50 540.00 C 475.57 539.45 471.75 539.00 469.00 539.00 C 465.67 539.00 462.33 539.83 459.00 541.50 C 455.67 543.17 453.00 545.50 451.00 548.50 C 449.35 550.98 447.55 554.35 447.00 556.00 C 446.45 557.65 446.00 561.48 446.00 564.50 C 446.00 567.52 446.45 571.58 447.00 573.50 C 447.55 575.42 449.35 579.02 451.00 581.50 C 453.00 584.50 455.67 586.83 459.00 588.50 C 462.52 590.26 465.63 591.00 469.50 591.00 C 473.37 591.00 476.48 590.26 480.00 588.50 C 483.69 586.65 485.65 584.82 487.50 581.50 C 489.89 577.20 490.20 577.00 494.50 577.00 C 498.94 577.00 498.99 577.04 498.50 580.00 C 498.23 581.65 496.88 584.80 495.50 587.00 C 494.12 589.20 491.20 592.35 489.00 594.00 C 486.80 595.65 482.52 597.67 479.50 598.50 C 475.83 599.50 471.50 599.83 466.50 599.50 C 460.50 599.10 458.00 598.40 454.00 596.00 C 451.25 594.35 446.98 590.75 444.50 588.00 C 441.08 584.20 439.52 581.32 438.00 576.00 C 436.51 570.80 436.13 567.20 436.50 562.00 C 436.82 557.57 437.92 552.98 439.50 549.50 C 440.88 546.48 443.80 541.98 446.00 539.50 C 448.20 537.02 451.35 534.33 453.00 533.50 C 454.65 532.67 457.80 531.33 460.00 530.50" stroke="#2A2A2A"/>
    <path d="M 526.50 530.00 C 527.88 529.45 531.02 529.00 533.50 529.00 C 535.98 529.00 540.02 529.67 542.50 530.50 C 544.98 531.33 548.80 533.35 551.00 535.00 C 553.67 537.00 555.67 539.67 557.00 543.00 C 558.10 545.75 558.77 548.67 558.50 549.50 C 558.15 550.54 556.61 551.00 553.50 551.00 C 549.17 551.00 548.94 550.85 547.50 547.00 C 546.67 544.78 544.67 542.11 543.00 541.00 C 541.11 539.74 538.33 539.00 535.50 539.00 C 533.02 539.00 529.42 539.67 527.50 540.50 C 525.17 541.50 523.50 543.17 522.50 545.50 C 521.67 547.42 521.00 549.67 521.00 550.50 C 521.00 551.33 522.35 553.35 524.00 555.00 C 526.44 557.44 528.76 558.37 536.50 560.00 C 542.49 561.26 547.85 563.11 551.00 565.00 C 554.33 567.00 556.67 569.33 558.00 572.00 C 559.10 574.20 560.00 577.35 560.00 579.00 C 560.00 580.65 559.33 583.58 558.50 585.50 C 557.67 587.42 555.88 590.35 554.50 592.00 C 553.12 593.65 550.20 595.90 548.00 597.00 C 545.80 598.10 541.08 599.23 537.50 599.50 C 533.92 599.77 528.98 599.55 526.50 599.00 C 523.61 598.36 520.39 596.57 517.50 594.00 C 515.02 591.80 512.33 588.42 511.50 586.50 C 510.68 584.58 509.77 581.88 509.50 580.50 C 509.02 578.10 509.20 578.00 514.00 578.00 C 518.40 578.00 519.12 578.30 520.00 580.50 C 520.55 581.88 521.90 584.12 523.00 585.50 C 524.10 586.88 526.58 588.67 528.50 589.50 C 530.42 590.33 533.80 591.00 536.00 591.00 C 538.20 591.00 541.35 590.33 543.00 589.50 C 544.65 588.67 546.90 587.10 548.00 586.00 C 549.33 584.67 550.00 582.67 550.00 580.00 C 550.00 576.93 549.42 575.53 547.50 574.00 C 546.12 572.90 540.05 570.65 534.00 569.00 C 527.95 567.35 522.10 565.55 521.00 565.00 C 519.90 564.45 517.65 562.88 516.00 561.50 C 514.21 560.01 512.60 557.39 512.00 555.00 C 511.45 552.80 511.23 549.42 511.50 547.50 C 511.77 545.58 513.12 541.98 514.50 539.50 C 515.90 536.99 518.55 534.12 520.50 533.00 C 522.42 531.90 525.12 530.55 526.50 530.00" stroke="#2A2A2A"/>
  </g>
  <path fill-rule="evenodd" d="M 209.50 384.50 C 214.18 382.02 219.35 380.00 221.00 380.00 C 222.65 380.00 230.07 382.93 237.50 386.50 C 244.93 390.07 256.18 395.02 262.50 397.50 C 268.82 399.98 279.40 403.80 286.00 406.00 C 292.60 408.20 303.85 411.35 311.00 413.00 C 321.17 415.35 324.22 416.43 325.00 418.00 C 325.55 419.10 326.23 429.45 326.50 441.00 C 326.77 452.55 326.55 467.85 326.00 475.00 C 325.45 482.15 323.88 493.62 322.50 500.50 C 321.12 507.38 318.43 517.73 316.50 523.50 C 314.57 529.27 311.20 537.83 309.00 542.50 C 306.80 547.17 302.07 555.50 298.50 561.00 C 294.93 566.50 289.07 574.38 285.50 578.50 C 281.93 582.62 275.40 589.15 271.00 593.00 C 266.60 596.85 258.27 603.15 252.50 607.00 C 246.72 610.85 237.95 616.02 233.00 618.50 C 228.05 620.98 222.65 623.00 221.00 623.00 C 219.17 623.00 213.92 620.67 207.50 617.00 C 201.72 613.70 192.50 607.85 187.00 604.00 C 181.50 600.15 173.85 594.08 170.00 590.50 C 166.15 586.92 160.07 580.40 156.50 576.00 C 152.93 571.60 147.97 565.08 145.50 561.50 C 143.03 557.92 138.75 550.27 136.00 544.50 C 133.25 538.73 129.20 528.60 127.00 522.00 C 124.80 515.40 122.10 505.50 121.00 500.00 C 119.90 494.50 118.55 485.95 118.00 481.00 C 117.45 476.05 117.00 460.07 117.00 445.50 C 117.00 423.28 117.24 418.76 118.50 417.50 C 119.33 416.68 127.88 413.98 137.50 411.50 C 147.12 409.02 159.28 405.43 164.50 403.50 C 169.72 401.57 180.07 397.52 187.50 394.50 C 194.93 391.48 204.82 386.98 209.50 384.50 Z M 241.50 479.00 C 222.53 497.70 206.10 513.23 205.00 513.50 C 203.46 513.88 199.41 510.52 187.50 499.00 C 175.93 487.80 171.37 484.00 169.50 484.00 C 167.80 484.00 165.73 485.43 163.00 488.50 C 159.95 491.93 159.12 493.60 159.50 495.50 C 159.80 497.02 168.26 506.45 181.00 519.50 C 194.51 533.33 202.71 541.00 204.00 541.00 C 205.29 541.00 220.68 526.50 247.50 500.00 C 283.83 464.10 289.00 458.63 289.00 456.00 C 289.00 454.00 287.83 451.67 285.50 449.00 C 282.88 446.00 281.25 445.00 279.00 445.00 C 276.40 445.00 271.38 449.56 241.50 479.00 Z" fill="#2A2A2A"/>
  <path fill-rule="evenodd" d="M 505.00 416.50 C 506.81 415.60 510.78 415.00 522.00 415.00 L 522.00 427.00 L 518.50 427.00 C 516.33 427.00 514.24 427.76 513.00 429.00 C 511.59 430.41 511.00 432.33 511.00 440.00 L 523.00 441.00 L 524.00 453.00 L 511.00 453.00 L 511.00 499.00 L 497.00 499.00 L 497.00 453.00 L 488.00 453.00 L 488.00 440.00 L 497.00 440.00 L 497.00 435.00 C 497.00 432.25 497.45 428.43 498.00 426.50 C 498.55 424.57 499.68 421.88 500.50 420.50 C 501.32 419.12 503.35 417.32 505.00 416.50 Z" fill="#2A2A2A"/>
  <path fill-rule="evenodd" d="M 897.00 416.00 L 912.00 416.00 L 912.00 499.00 L 898.00 499.00 L 898.00 492.00 L 896.00 494.00 C 894.90 495.10 892.20 496.90 890.00 498.00 C 887.14 499.43 884.00 500.00 879.00 500.00 C 873.67 500.00 870.69 499.40 866.50 497.50 C 862.96 495.89 859.93 493.57 858.00 491.00 C 856.35 488.80 854.10 484.30 853.00 481.00 C 851.90 477.70 851.00 472.75 851.00 470.00 C 851.00 467.25 851.90 462.07 853.00 458.50 C 854.57 453.40 856.07 450.93 860.00 447.00 C 863.52 443.48 866.48 441.56 870.00 440.50 C 873.19 439.54 877.17 439.18 881.00 439.50 C 885.26 439.85 888.45 440.87 897.00 446.00 L 897.00 416.00 Z M 873.00 454.00 C 871.35 455.10 869.33 457.12 868.50 458.50 C 867.66 459.90 866.78 464.53 866.50 469.00 C 866.07 475.86 866.29 477.43 868.00 480.00 C 869.10 481.65 871.35 484.12 873.00 485.50 C 875.70 487.75 876.64 487.95 882.50 487.50 C 886.08 487.23 889.90 486.32 891.00 485.50 C 892.10 484.68 893.90 482.20 895.00 480.00 C 896.33 477.33 897.00 474.00 897.00 470.00 C 897.00 465.33 896.44 463.11 894.50 460.00 C 893.12 457.80 890.65 455.10 889.00 454.00 C 887.00 452.67 884.33 452.00 881.00 452.00 C 877.67 452.00 875.00 452.67 873.00 454.00 Z" fill="#2A2A2A"/>
  <path fill-rule="evenodd" d="M 380.50 419.50 C 383.66 418.45 387.39 418.15 393.00 418.50 C 397.54 418.78 403.16 419.86 406.00 421.00 C 408.95 422.18 412.44 424.64 414.50 427.00 C 416.43 429.20 418.68 432.57 419.50 434.50 C 420.32 436.43 421.00 439.12 421.00 440.50 C 421.00 442.98 420.93 443.00 414.00 442.50 C 407.28 442.02 406.96 441.88 406.00 439.00 C 405.45 437.35 403.65 434.88 402.00 433.50 C 400.35 432.12 397.20 430.77 395.00 430.50 C 392.80 430.23 389.20 430.45 387.00 431.00 C 384.80 431.55 381.88 433.12 380.50 434.50 C 378.79 436.21 378.00 438.10 378.00 440.50 C 378.00 442.90 378.79 444.79 380.50 446.50 C 382.31 448.31 385.49 449.55 392.00 451.00 C 396.95 452.10 403.48 453.90 406.50 455.00 C 409.99 456.27 413.64 458.64 416.50 461.50 C 418.98 463.98 421.45 467.57 422.00 469.50 C 422.55 471.43 423.00 474.12 423.00 475.50 C 423.00 476.88 422.32 480.25 421.50 483.00 C 420.68 485.75 418.65 489.57 417.00 491.50 C 415.35 493.43 411.98 495.90 409.50 497.00 C 407.02 498.10 402.07 499.45 398.50 500.00 C 394.17 500.67 390.00 500.67 386.00 500.00 C 382.70 499.45 378.20 498.10 376.00 497.00 C 373.80 495.90 370.65 493.65 369.00 492.00 C 367.35 490.35 365.10 487.20 364.00 485.00 C 362.90 482.80 362.00 479.65 362.00 475.00 L 376.00 475.00 L 378.00 479.00 C 379.15 481.30 381.70 484.06 384.00 485.50 C 386.73 487.20 389.43 488.00 392.50 488.00 C 394.98 488.00 398.57 487.32 400.50 486.50 C 402.43 485.68 404.90 483.88 406.00 482.50 C 407.10 481.12 408.00 478.65 408.00 477.00 C 408.00 475.27 406.94 472.73 405.50 471.00 C 403.78 468.93 400.98 467.38 396.50 466.00 C 392.93 464.90 386.85 463.32 383.00 462.50 C 378.91 461.62 374.13 459.75 371.50 458.00 C 368.88 456.25 366.17 453.33 365.00 451.00 C 363.40 447.80 363.10 445.70 363.50 440.50 C 363.90 435.30 364.60 433.20 367.00 430.00 C 368.65 427.80 371.35 424.88 373.00 423.50 C 374.65 422.12 378.02 420.32 380.50 419.50 Z" fill="#2A2A2A"/>
  <path fill-rule="evenodd" d="M 618.50 420.00 C 623.13 418.32 625.66 418.08 634.50 418.50 C 642.84 418.90 646.13 419.51 650.50 421.50 C 653.52 422.88 657.80 425.80 660.00 428.00 C 662.20 430.20 665.12 434.25 666.50 437.00 C 667.88 439.75 669.00 442.68 669.00 443.50 C 669.00 444.70 667.50 445.00 654.00 445.00 L 652.00 441.50 C 650.90 439.57 648.20 436.65 646.00 435.00 C 642.62 432.46 640.84 431.92 634.50 431.50 C 629.31 431.15 625.61 431.46 622.50 432.50 C 619.55 433.48 616.62 435.55 614.00 438.50 C 611.69 441.10 609.37 445.11 608.50 448.00 C 607.67 450.75 607.00 455.70 607.00 459.00 C 607.00 462.30 607.67 467.25 608.50 470.00 C 609.33 472.75 611.12 476.35 612.50 478.00 C 613.88 479.65 616.58 482.12 618.50 483.50 C 620.42 484.88 624.25 486.45 627.00 487.00 C 630.33 487.67 633.67 487.67 637.00 487.00 C 639.75 486.45 643.80 484.88 646.00 483.50 C 648.27 482.08 651.08 479.05 652.50 476.50 C 653.88 474.02 655.00 471.55 655.00 471.00 C 655.00 470.39 650.50 470.00 632.00 470.00 L 632.00 456.00 L 670.00 456.00 L 669.50 465.50 C 669.12 472.74 668.40 476.31 666.50 480.50 C 665.12 483.52 662.20 487.80 660.00 490.00 C 657.80 492.20 653.52 495.12 650.50 496.50 C 647.48 497.88 642.08 499.45 638.50 500.00 C 634.17 500.67 629.83 500.67 625.50 500.00 C 621.92 499.45 616.52 497.88 613.50 496.50 C 610.48 495.12 605.98 491.98 603.50 489.50 C 601.02 487.02 598.10 483.20 597.00 481.00 C 595.90 478.80 594.33 474.52 593.50 471.50 C 592.67 468.48 592.00 463.30 592.00 460.00 C 592.00 456.70 592.45 451.75 593.00 449.00 C 593.55 446.25 595.12 441.75 596.50 439.00 C 597.88 436.25 600.58 432.20 602.50 430.00 C 604.42 427.80 607.58 425.10 609.50 424.00 C 611.42 422.90 615.48 421.10 618.50 420.00 Z" fill="#2A2A2A"/>
  <path fill-rule="evenodd" d="M 445.00 441.50 C 448.90 439.55 451.53 439.00 457.00 439.00 C 460.85 439.00 466.02 439.68 468.50 440.50 C 471.32 441.44 474.30 443.49 476.50 446.00 C 478.59 448.38 480.40 451.82 481.00 454.50 C 481.55 456.98 482.00 468.00 482.00 499.00 L 475.50 499.00 C 469.23 499.00 469.00 498.91 469.00 496.50 C 469.00 495.12 468.77 494.00 468.50 494.00 C 468.23 494.00 467.10 494.90 466.00 496.00 C 464.90 497.10 462.88 498.45 461.50 499.00 C 460.12 499.55 455.85 500.00 452.00 500.00 C 447.00 500.00 443.86 499.43 441.00 498.00 C 438.80 496.90 435.88 494.43 434.50 492.50 C 433.12 490.57 431.77 487.43 431.50 485.50 C 431.23 483.57 431.23 480.43 431.50 478.50 C 431.82 476.28 433.28 473.72 435.50 471.50 C 437.87 469.13 441.10 467.35 445.50 466.00 C 449.07 464.90 455.60 463.77 468.00 463.00 L 468.00 459.50 C 468.00 456.94 467.19 455.19 465.00 453.00 C 462.81 450.81 461.06 450.00 458.50 450.00 C 456.57 450.00 453.88 450.45 452.50 451.00 C 451.12 451.55 449.32 453.35 448.50 455.00 C 447.11 457.77 446.51 458.04 440.50 458.50 C 434.10 458.99 434.00 458.96 434.00 456.50 C 434.00 455.12 434.45 452.88 435.00 451.50 C 435.55 450.12 436.90 447.88 438.00 446.50 C 439.10 445.12 442.25 442.88 445.00 441.50 Z M 458.00 473.50 C 457.45 473.77 455.43 474.23 453.50 474.50 C 451.57 474.77 448.88 476.12 447.50 477.50 C 446.12 478.88 445.00 481.12 445.00 482.50 C 445.00 483.88 445.90 485.68 447.00 486.50 C 448.10 487.32 451.25 488.23 454.00 488.50 C 457.33 488.83 460.00 488.50 462.00 487.50 C 463.65 486.68 465.68 484.65 466.50 483.00 C 467.32 481.35 468.00 478.43 468.00 476.50 C 468.00 473.02 467.98 473.00 463.50 473.00 C 461.02 473.00 458.55 473.23 458.00 473.50 Z" fill="#2A2A2A"/>
  <path fill-rule="evenodd" d="M 547.50 440.50 C 549.98 439.68 553.80 439.00 556.00 439.00 C 558.20 439.00 562.02 439.68 564.50 440.50 C 566.98 441.32 570.58 443.12 572.50 444.50 C 574.42 445.88 577.12 448.80 578.50 451.00 C 579.88 453.20 581.67 457.25 582.50 460.00 C 583.33 462.75 584.00 466.80 584.00 473.00 L 563.50 473.50 C 552.23 473.77 542.77 474.23 542.50 474.50 C 542.23 474.77 542.45 476.57 543.00 478.50 C 543.55 480.43 545.35 483.35 547.00 485.00 C 549.30 487.30 551.17 488.12 555.00 488.50 C 557.75 488.77 560.90 488.55 562.00 488.00 C 563.10 487.45 564.67 485.65 565.50 484.00 C 566.97 481.07 567.17 481.00 574.50 481.00 C 580.50 481.00 582.00 481.30 582.00 482.50 C 582.00 483.32 580.42 486.02 578.50 488.50 C 576.58 490.98 572.98 494.35 570.50 496.00 C 566.71 498.53 564.74 499.08 558.00 499.50 C 552.39 499.85 548.66 499.55 545.50 498.50 C 543.00 497.67 539.22 495.22 537.00 493.00 C 534.80 490.80 532.10 486.98 531.00 484.50 C 529.85 481.91 528.79 476.81 528.50 472.50 C 528.17 467.50 528.50 463.17 529.50 459.50 C 530.71 455.07 532.17 452.83 537.00 448.00 C 541.00 444.00 544.50 441.50 547.50 440.50 Z M 549.00 452.00 C 547.35 453.10 545.33 455.35 544.50 457.00 C 543.67 458.65 543.00 460.45 543.00 461.00 C 543.00 461.59 548.33 462.21 556.00 462.50 C 568.50 462.98 569.00 462.92 569.00 461.00 C 569.00 459.90 567.88 457.65 566.50 456.00 C 565.12 454.35 563.10 452.32 562.00 451.50 C 560.90 450.68 558.20 450.00 556.00 450.00 C 553.67 450.00 550.75 450.83 549.00 452.00 Z" fill="#2A2A2A"/>
  <path fill-rule="evenodd" d="M 763.00 453.00 C 759.12 455.32 756.42 456.00 754.50 456.00 C 752.58 456.00 750.33 456.45 749.50 457.00 C 748.67 457.55 748.00 458.00 748.00 458.00 L 748.00 458.00 L 748.00 458.00 C 748.00 458.00 748.00 456.88 748.00 455.50 C 748.00 454.12 748.67 451.65 749.50 450.00 C 750.33 448.35 752.12 445.88 753.50 444.50 C 754.88 443.12 758.48 441.32 761.50 440.50 C 765.17 439.50 769.50 439.17 774.50 439.50 C 780.17 439.88 782.98 440.61 786.00 442.50 C 788.24 443.90 791.32 447.20 796.00 455.00 L 797.00 499.00 L 790.00 499.00 C 783.20 499.00 783.00 498.93 783.00 496.50 C 783.00 495.12 782.55 494.00 782.00 494.00 C 781.45 494.00 780.55 494.68 780.00 495.50 C 779.45 496.32 777.65 497.68 776.00 498.50 C 774.35 499.32 771.42 500.23 769.50 500.50 C 767.58 500.77 763.75 500.55 761.00 500.00 C 758.25 499.45 754.42 497.88 752.50 496.50 C 750.58 495.12 748.10 492.65 747.00 491.00 C 745.74 489.11 745.00 486.33 745.00 483.50 C 745.00 480.57 745.87 477.43 747.50 474.50 C 749.36 471.16 751.16 469.49 754.50 468.00 C 756.98 466.90 761.02 465.55 763.50 465.00 C 765.98 464.45 771.15 463.55 775.00 463.00 C 781.53 462.07 782.00 461.83 782.00 459.50 C 782.00 458.12 781.33 455.88 780.50 454.50 C 779.67 453.12 777.88 451.55 776.50 451.00 C 775.12 450.45 772.88 450.00 771.50 450.00 C 770.12 450.00 767.65 450.68 763.00 453.00 Z M 767.00 474.50 C 764.80 475.32 762.10 476.68 761.00 477.50 C 759.78 478.42 759.00 480.17 759.00 482.00 C 759.00 483.83 759.78 485.58 761.00 486.50 C 762.26 487.44 765.22 488.00 769.00 488.00 C 774.33 488.00 775.33 487.67 778.00 485.00 C 780.17 482.83 781.14 480.75 781.50 477.50 L 782.00 473.00 C 773.48 473.00 769.20 473.68 767.00 474.50 Z" fill="#2A2A2A"/>
  <path fill-rule="evenodd" d="M 681.00 440.00 L 696.00 440.00 L 696.00 459.00 C 696.00 473.89 696.32 478.65 697.50 481.00 C 698.35 482.70 700.52 484.65 702.50 485.50 C 704.42 486.32 706.67 487.00 707.50 487.00 C 708.33 487.00 710.58 486.32 712.50 485.50 C 715.06 484.40 716.54 482.79 718.00 479.50 C 719.75 475.56 720.00 472.83 720.00 440.00 L 735.00 440.00 L 735.00 499.00 L 721.00 499.00 L 721.00 493.00 L 717.50 496.00 C 715.37 497.83 712.04 499.39 709.00 500.00 C 705.67 500.67 702.67 500.67 700.00 500.00 C 697.80 499.45 694.20 498.10 692.00 497.00 C 689.80 495.90 687.33 494.10 686.50 493.00 C 685.67 491.90 684.10 489.20 683.00 487.00 C 681.19 483.37 681.00 481.00 681.00 440.00 Z" fill="#2A2A2A"/>
  <path fill-rule="evenodd" d="M 810.00 440.00 L 824.00 440.00 L 824.00 448.00 L 826.00 445.50 C 827.10 444.12 829.35 442.32 831.00 441.50 C 832.81 440.60 836.78 440.00 848.00 440.00 L 848.00 456.00 L 845.00 455.00 C 843.35 454.45 840.20 454.23 838.00 454.50 C 835.53 454.81 832.66 456.15 830.50 458.00 C 828.58 459.65 826.55 462.57 826.00 464.50 C 825.45 466.43 825.00 474.98 825.00 499.00 L 817.50 499.00 C 813.38 499.00 810.00 498.77 810.00 498.50 C 810.00 498.23 810.00 484.95 810.00 440.00 Z" fill="#2A2A2A"/>
  <path fill-rule="evenodd" d="M 763.00 453.00 L 763.00 453.00 C 763.00 453.00 762.55 453.90 762.00 455.00 C 761.45 456.10 760.77 457.23 760.50 457.50 C 760.23 457.77 757.30 458.00 748.00 458.00 L 748.00 458.00 C 748.00 458.00 748.67 457.55 749.50 457.00 C 750.33 456.45 752.58 456.00 754.50 456.00 C 756.42 456.00 759.12 455.32 763.00 453.00 Z" fill="#2A2A2A"/>
  <path fill-rule="evenodd" d="M 385.50 530.50 C 388.56 529.48 392.24 529.16 397.00 529.50 C 400.85 529.77 406.02 530.90 408.50 532.00 C 410.98 533.10 414.35 534.90 416.00 536.00 C 417.65 537.10 420.35 540.25 422.00 543.00 C 423.65 545.75 425.00 548.90 425.00 550.00 C 425.00 551.70 424.33 552.00 420.50 552.00 C 416.28 552.00 415.81 551.72 413.00 547.50 C 411.22 544.83 408.57 542.39 406.50 541.50 C 404.57 540.67 400.30 539.77 397.00 539.50 C 392.45 539.12 389.79 539.48 386.00 541.00 C 383.25 542.10 379.65 544.57 378.00 546.50 C 376.35 548.42 374.32 551.58 373.50 553.50 C 372.61 555.57 372.00 560.06 372.00 564.50 C 372.00 569.83 372.58 573.30 374.00 576.50 C 375.10 578.98 376.90 582.12 378.00 583.50 C 379.10 584.88 382.25 587.12 385.00 588.50 C 388.33 590.17 391.67 591.00 395.00 591.00 C 398.33 591.00 401.67 590.17 405.00 588.50 C 407.75 587.12 410.90 584.88 412.00 583.50 C 413.10 582.12 414.23 580.10 414.50 579.00 C 414.92 577.33 415.83 577.00 420.00 577.00 C 423.78 577.00 425.00 577.37 425.00 578.50 C 425.00 579.33 424.10 581.80 423.00 584.00 C 421.90 586.20 419.43 589.58 417.50 591.50 C 415.57 593.42 411.98 595.90 409.50 597.00 C 405.98 598.57 402.83 599.00 395.00 599.00 C 387.17 599.00 384.02 598.57 380.50 597.00 C 378.02 595.90 374.20 593.42 372.00 591.50 C 369.59 589.39 366.81 585.41 365.00 581.50 C 362.92 576.98 361.85 572.86 361.50 568.00 C 361.13 562.80 361.51 559.20 363.00 554.00 C 364.33 549.33 366.17 545.67 368.50 543.00 C 370.43 540.80 374.02 537.42 376.50 535.50 C 378.98 533.58 383.02 531.33 385.50 530.50 Z" fill="#2A2A2A"/>
  <path fill-rule="evenodd" d="M 460.00 530.50 C 462.77 529.46 466.15 529.15 471.00 529.50 C 474.85 529.77 480.02 530.90 482.50 532.00 C 484.98 533.10 488.57 535.12 490.50 536.50 C 492.43 537.88 495.12 541.02 496.50 543.50 C 497.88 545.98 499.23 548.90 499.50 550.00 C 499.95 551.80 499.50 552.00 495.00 552.00 C 490.44 552.00 489.87 551.73 488.50 549.00 C 487.68 547.35 485.65 544.88 484.00 543.50 C 482.35 542.12 479.43 540.55 477.50 540.00 C 475.57 539.45 471.75 539.00 469.00 539.00 C 465.67 539.00 462.33 539.83 459.00 541.50 C 455.67 543.17 453.00 545.50 451.00 548.50 C 449.35 550.98 447.55 554.35 447.00 556.00 C 446.45 557.65 446.00 561.48 446.00 564.50 C 446.00 567.52 446.45 571.58 447.00 573.50 C 447.55 575.42 449.35 579.02 451.00 581.50 C 453.00 584.50 455.67 586.83 459.00 588.50 C 462.52 590.26 465.63 591.00 469.50 591.00 C 473.37 591.00 476.48 590.26 480.00 588.50 C 483.69 586.65 485.65 584.82 487.50 581.50 C 489.89 577.20 490.20 577.00 494.50 577.00 C 498.94 577.00 498.99 577.04 498.50 580.00 C 498.23 581.65 496.88 584.80 495.50 587.00 C 494.12 589.20 491.20 592.35 489.00 594.00 C 486.80 595.65 482.52 597.67 479.50 598.50 C 475.83 599.50 471.50 599.83 466.50 599.50 C 460.50 599.10 458.00 598.40 454.00 596.00 C 451.25 594.35 446.98 590.75 444.50 588.00 C 441.08 584.20 439.52 581.32 438.00 576.00 C 436.51 570.80 436.13 567.20 436.50 562.00 C 436.82 557.57 437.92 552.98 439.50 549.50 C 440.88 546.48 443.80 541.98 446.00 539.50 C 448.20 537.02 451.35 534.33 453.00 533.50 C 454.65 532.67 457.80 531.33 460.00 530.50 Z" fill="#2A2A2A"/>
  <path fill-rule="evenodd" d="M 526.50 530.00 C 527.88 529.45 531.02 529.00 533.50 529.00 C 535.98 529.00 540.02 529.67 542.50 530.50 C 544.98 531.33 548.80 533.35 551.00 535.00 C 553.67 537.00 555.67 539.67 557.00 543.00 C 558.10 545.75 558.77 548.67 558.50 549.50 C 558.15 550.54 556.61 551.00 553.50 551.00 C 549.17 551.00 548.94 550.85 547.50 547.00 C 546.67 544.78 544.67 542.11 543.00 541.00 C 541.11 539.74 538.33 539.00 535.50 539.00 C 533.02 539.00 529.42 539.67 527.50 540.50 C 525.17 541.50 523.50 543.17 522.50 545.50 C 521.67 547.42 521.00 549.67 521.00 550.50 C 521.00 551.33 522.35 553.35 524.00 555.00 C 526.44 557.44 528.76 558.37 536.50 560.00 C 542.49 561.26 547.85 563.11 551.00 565.00 C 554.33 567.00 556.67 569.33 558.00 572.00 C 559.10 574.20 560.00 577.35 560.00 579.00 C 560.00 580.65 559.33 583.58 558.50 585.50 C 557.67 587.42 555.88 590.35 554.50 592.00 C 553.12 593.65 550.20 595.90 548.00 597.00 C 545.80 598.10 541.08 599.23 537.50 599.50 C 533.92 599.77 528.98 599.55 526.50 599.00 C 523.61 598.36 520.39 596.57 517.50 594.00 C 515.02 591.80 512.33 588.42 511.50 586.50 C 510.68 584.58 509.77 581.88 509.50 580.50 C 509.02 578.10 509.20 578.00 514.00 578.00 C 518.40 578.00 519.12 578.30 520.00 580.50 C 520.55 581.88 521.90 584.12 523.00 585.50 C 524.10 586.88 526.58 588.67 528.50 589.50 C 530.42 590.33 533.80 591.00 536.00 591.00 C 538.20 591.00 541.35 590.33 543.00 589.50 C 544.65 588.67 546.90 587.10 548.00 586.00 C 549.33 584.67 550.00 582.67 550.00 580.00 C 550.00 576.93 549.42 575.53 547.50 574.00 C 546.12 572.90 540.05 570.65 534.00 569.00 C 527.95 567.35 522.10 565.55 521.00 565.00 C 519.90 564.45 517.65 562.88 516.00 561.50 C 514.21 560.01 512.60 557.39 512.00 555.00 C 511.45 552.80 511.23 549.42 511.50 547.50 C 511.77 545.58 513.12 541.98 514.50 539.50 C 515.90 536.99 518.55 534.12 520.50 533.00 C 522.42 531.90 525.12 530.55 526.50 530.00 Z" fill="#2A2A2A"/>
</svg>